<svg xmlns="http://www.w3.org/2000/svg" version="1.1" xmlns:xlink="http://www.w3.org/1999/xlink" xmlns:svgjs="http://svgjs.dev/svgjs" width="100%" height="100%" viewBox="0 0 1000 600"><rect width="1000" height="600" x="0" y="0" fill="transparent"/><g><rect width="333.3333333333333" height="333.3333333333333" rx="13.333333333333334" ry="13.333333333333334" y="164.53919911624865" fill="white" transform="matrix(0.8783209545450321,0,0,0.8783209545450321,0,9.094925804116116)" x="142.31695556640625"/><path d="M254.72926721058212 258.0099954888215L254.72926721058212 258.0099954888215Q263.77852180802745 259.24138139923343 270.0213620049992 259.24138139923343L270.0213620049992 259.24138139923343Q273.4577878014975 259.24138139923343 276.264202201971 259.04092322777103L276.264202201971 259.04092322777103Q279.0706166024446 258.84046505630863 283.30887508479236 258.4109118317463L283.30887508479236 258.4109118317463Q286.945759052753 258.0099954888215 292.3867665638752 257.60907914589677Q297.7991371933599 257.20816280297197 305.07290512928114 256.20587194565996L305.07290512928114 256.20587194565996Q302.43831201863253 258.2104536602839 301.0351048183957 260.8450467709326Q299.631897618159 263.45100299994374 298.83006493230937 265.88513793912995L298.83006493230937 265.88513793912995Q297.9995953648223 268.6915523396035 297.5986790218975 271.727061793177L297.5986790218975 271.727061793177Q297.3982208504351 273.5311853363385 297.51276837698504 279.17265101892315Q297.5986790218975 284.8141167015077 297.71322654844744 292.86108044164104Q297.7991371933599 300.9080441817744 297.71322654844744 310.78776834670686Q297.5986790218975 320.63885563000173 297.1977626789727 330.804948611309Q296.7968463360479 340.97104159261625 295.9950136501983 350.9366764024611Q295.19318096434876 360.90231121230596 293.675426237562 369.26428065045167Q292.1863083924128 377.6262500885974 289.86672097977646 383.7545427590192Q287.5471335671402 389.9114723110785 284.31116594210437 392.31697036862727L284.31116594210437 392.31697036862727Q277.6674094022078 397.3570615368247 269.8209038335368 400.4784816353105Q261.97439826486584 403.59990173379646 254.32835086765732 404.60219259110846Q246.6536665888113 405.6044834484204 239.92399940400225 404.7167401176584Q233.16569533755575 403.80035990525886 228.5551573939206 400.5930291618605L228.5551573939206 400.5930291618605Q225.51964794034717 398.3593523941367 222.913691711336 394.35018896488873Q220.27909860068738 390.3123886540033 218.18860624115098 385.3868450123559Q216.06947699997704 380.4326644890709 214.35126410172793 375.10620450449863Q212.63305120347883 369.7797445199264 211.3157546481545 365.2551172212037Q210.02709497446767 360.70185304084356 209.11071476206814 357.1795165994329Q208.1943345496686 353.6571801580222 207.7934182067438 352.45443112924784L207.7934182067438 352.45443112924784Q206.99158552089423 350.6503075860863 205.18746197773265 348.8175471612872Q203.3833384345711 347.0134236181256 201.35011983830964 345.61021641788886Q199.34553812368569 344.2070092176521 197.82778339689895 343.491087176715Q196.33866555174973 342.8038020174153 196.13820738028733 343.2047183603401L196.13820738028733 343.2047183603401Q196.13820738028733 343.6056347032649 199.2596274787732 343.2906290052526Q202.3810475772591 343.0042601888777 206.79112734943183 342.6033438459529Q211.22984400324205 342.17379062139065 216.06947699997704 341.8874218050158Q220.88047311507458 341.57241610700345 224.1164407401104 341.77287427846585L224.1164407401104 341.77287427846585Q226.72239696912158 341.77287427846585 230.96065545146936 341.97333244992825L230.96065545146936 341.97333244992825Q234.59753941943 342.17379062139065 240.21036822037712 342.2883381479406Q245.8518339029617 342.37424879285305 254.12789269619492 342.8038020174153L254.12789269619492 342.8038020174153Q248.88734335653513 344.40746738911446 245.76592325804924 346.326138458826Q242.64450315956333 348.2161726469 241.04083778786418 349.8484749002367L241.04083778786418 349.8484749002367Q239.0076191916027 351.85305661486063 238.20578650575314 353.8576383294846L238.20578650575314 353.8576383294846Q237.60441199136596 355.69039875428365 237.2894062933536 361.2173169103183Q237.00303747697876 366.7442350663529 238.00532833429074 372.58615892039995Q239.0076191916027 378.4280827744469 241.84267047371378 383.26771577118194Q244.6490848741873 388.10734876791696 250.6914668996967 388.7087232823041L250.6914668996967 388.7087232823041Q257.1347652681309 389.3100977966913 261.2584762239287 386.3891358696678Q265.38218717972666 383.46817394264434 267.81632211891286 378.4280827744469Q270.2218201764616 373.3879916062495 271.424569205236 367.14515140927773Q272.6273182340104 360.90231121230596 273.4577878014975 354.8599291867966L273.4577878014975 354.8599291867966Q274.05916231588463 350.8507657575487 273.85870414442223 343.6056347032649Q273.6582459729599 336.36050364898114 272.8564132871103 327.8839866842855Q272.0259437196232 319.4361066012274 270.93774221739875 310.38685200378205Q269.8209038335368 301.3089605246992 268.8186129762248 293.66291312749064Q267.81632211891286 286.0168657302821 266.89994190651333 280.5758582191599Q265.9835616941138 275.1348507080377 265.7831035226514 273.7316435078009L265.7831035226514 273.7316435078009Q264.98127083680185 271.0970503971523 263.57806363656505 268.2906359966787L263.57806363656505 268.2906359966787Q262.37531460779064 266.08559611059235 260.25618536661676 263.25054482848134Q258.1370561254429 260.4441304280078 254.72926721058212 258.0099954888215ZM311.08665027315305 262.24825397116933L311.08665027315305 262.24825397116933Q315.7258250984257 263.45100299994374 319.64907788276116 263.96646686941847Q323.5723306670966 264.4532938572557 326.40738194920766 264.6537520287181L326.40738194920766 264.6537520287181Q329.81517086406836 264.8542102001805 332.65022214617943 264.8542102001805L332.65022214617943 264.8542102001805Q335.456636546653 264.8542102001805 339.6948950290008 264.4532938572557L339.6948950290008 264.4532938572557Q347.140484254747 263.85191934286854 360.8289136774649 261.44642128531973L360.8289136774649 261.44642128531973Q358.6238737913785 263.05008665701894 356.70520272166704 264.56784138380567Q354.78653165195556 266.08559611059235 353.38332445171875 267.48880331082916L353.38332445171875 267.48880331082916L350.3764518797828 270.4956758827651Q347.7418587691342 274.1325598507257 345.13590254012297 282.78089810524625L345.13590254012297 282.78089810524625Q342.9022257723991 290.2264873309924 340.3821801883005 303.71445858224797Q337.8907714858392 317.231066715141 335.85755288957773 339.56783439237944L335.85755288957773 339.56783439237944Q345.7372770545102 329.91720528054697 354.5001628355807 324.963024757262Q363.26304861665113 320.0374811156145 369.90680515654776 317.8324412295282L369.90680515654776 317.8324412295282Q377.7533107252186 315.39830629034196 384.1966090936528 315.19784811887956L384.1966090936528 315.19784811887956Q392.4440310052486 315.7992226332667 398.600960557308 318.51972638882785Q404.7292532277298 321.24023014438893 409.05342235499 324.963024757262Q413.3775914822503 328.6858193701351 416.09809523781144 332.60907215447054Q418.81859899337246 336.56096182044354 420.22180619360927 339.56783439237944L420.22180619360927 339.56783439237944Q421.0522757610963 341.57241610700345 421.5391027489336 346.9275129732132Q422.05456661840833 352.25397295778544 421.6536502754835 359.0981876691444Q421.2527339325587 365.9424023805034 419.5345210343096 373.5025391327995Q417.8163081360605 381.0340390034581 414.0935135231874 387.39142672697983Q410.3707189103144 393.720177568864 404.4142475297174 397.9584360512119Q398.48641303075794 402.19669453355965 389.637616604775 402.59761087648445L389.637616604775 402.59761087648445Q379.35697609691783 402.59761087648445 369.70634698508536 400.1634759372982L369.70634698508536 400.1634759372982Q361.4302881918521 398.1588942226743 352.2664860678568 393.0328924095644Q343.1026839438615 387.9068905964545 336.65938557542734 378.2276246029845L336.65938557542734 378.2276246029845Q336.65938557542734 380.63312266053333 336.65938557542734 382.9527100731696Q336.65938557542734 385.2722974858059 336.85984374688974 386.87596285750504L336.85984374688974 386.87596285750504Q337.06030191835214 389.1096396252289 337.289396971452 390.7133049969281L337.289396971452 390.7133049969281Q337.48985514291445 392.51742854008967 338.291687828764 394.55064713635113L338.291687828764 394.55064713635113Q338.8930623431512 396.1543125080503 340.1817220168381 398.4738999206866Q341.49901857216236 400.7934873333229 343.7326953398862 402.99852721940925L343.7326953398862 402.99852721940925Q341.49901857216236 402.79806904794685 339.293978686076 402.6835215213969Q337.06030191835214 402.59761087648445 334.8552620322658 402.79806904794685L334.8552620322658 402.79806904794685Q332.44976397471703 402.99852721940925 330.0156290355308 403.19898539087166L330.0156290355308 403.19898539087166Q327.61013097798207 403.39944356233406 325.00417474897085 403.80035990525886L325.00417474897085 403.80035990525886Q322.770497981247 404.20127624818366 319.7636254093111 404.80265076257086Q316.7281159557376 405.404025276958 313.5207852123393 406.20585796280756L313.5207852123393 406.20585796280756Q314.12215972672647 404.40173441964606 314.52307606965127 400.8793979782353Q314.92399241257607 397.3570615368247 315.4394562820508 393.0328924095644Q315.9262832698881 388.7087232823041 316.2412889679004 383.86909028556914Q316.5276577842752 379.0294572888341 316.9285741272 374.1898242920991L316.9285741272 374.1898242920991Q317.7304068130496 363.1359879800298 318.3604182090743 350.0489330716991L318.3604182090743 350.0489330716991Q318.9617927234615 329.71674710908457 318.5608763805367 312.1909755469436L318.5608763805367 312.1909755469436Q318.3604182090743 304.74538632119743 317.84495433959955 297.0707020423514Q317.3294904701248 289.4246546451428 316.5276577842752 282.6949874603338Q315.7258250984257 275.9366833938873 314.40852854310134 270.61022340931504Q313.1198688694145 265.2837634247428 311.08665027315305 262.24825397116933ZM337.289396971452 355.2608455297214L337.289396971452 360.30093669791876Q340.4967277148504 366.1428605519658 344.133611682811 370.2665715077637Q347.7418587691342 374.3902824635615 351.37874273709474 377.2253337456726Q354.98698982341796 380.03174814614607 358.5093262648286 381.6640503994828Q362.03166270623933 383.26771577118194 365.2676303312751 384.06954845703154L365.2676303312751 384.06954845703154Q372.71321955702126 386.0741301716555 379.95835061130504 384.47046479995635L379.95835061130504 384.47046479995635Q387.2034816655888 382.46588308533234 391.24128197647417 376.42350105982297Q395.27908228735964 370.3811190343136 397.484122173446 362.735071637105L397.484122173446 362.735071637105Q398.48641303075794 359.0981876691444 398.8014187287703 353.4567219865598Q399.08778754514515 347.8152563039752 397.57003281835847 342.488796319403Q396.08091497320925 337.16233633483074 392.2435728337862 333.03862537903285Q388.4062306943631 328.8862775415975 381.16109964007944 328.0844448557479L381.16109964007944 328.0844448557479Q376.14964535351953 328.0844448557479 369.50588881362296 330.9194961378589L369.50588881362296 330.9194961378589Q363.66396495957594 333.32499419540767 355.5883643378051 338.8519123514423Q347.5414005976718 344.40746738911446 337.289396971452 355.2608455297214L337.289396971452 355.2608455297214Z " fill="#4f46e5" transform="matrix(0.8783209545450321,0,0,0.8783209545450321,0,9.094925804116116)"/><path d="M564.1962301561896 381.8026263786822L564.1962301561896 381.8026263786822Q565.7914661046202 379.42100651201116 566.7351268065088 377.37640832458607Q567.6787875083972 375.33181013716097 568.3078946429896 373.89385097237846L568.3078946429896 373.89385097237846Q568.9370017775819 372.16380635224954 569.2515553448782 370.74831529941673L569.2515553448782 370.74831529941673Q569.4088321285262 369.7821864855785 569.4088321285262 365.22115975978403Q569.4088321285262 360.63766492203985 569.1841510090289 353.67255021762463Q568.9370017775819 346.7299036251591 568.7123206580848 338.03474430061493Q568.4651714266377 329.3395849760708 568.0607454115426 320.3523401961802Q567.6787875083972 311.3426273043399 567.2743614933022 302.8047447634438Q566.8924035901568 294.2893303344975 566.5778500228607 287.41408807788116Q566.2632964555645 280.53884582126483 565.9487428882683 276.1126277671687Q565.6117212090224 271.68640971307263 565.4544444253743 271.0573025784803L565.4544444253743 271.0573025784803Q565.1398908580782 270.1136418765917 564.3535069398378 269.16998117470325L564.3535069398378 269.16998117470325Q562.7807391033568 267.2601916589765 558.9836281838532 265.53014703884753L558.9836281838532 265.53014703884753Q567.0496803738049 263.4630807394727 571.318621644253 262.20486647028804L571.318621644253 262.20486647028804Q573.8350501826224 261.5757593356957 575.7223715863994 260.94665220110335L575.7223715863994 260.94665220110335Q577.474884318478 260.317545066511 579.2049289386069 259.68843793191866L579.2049289386069 259.68843793191866Q580.6204199914398 259.0593307973263 582.3729327235185 258.18307443128697Q584.1029773436474 257.3068180652476 585.5184683964801 256.20588057971105L585.5184683964801 256.20588057971105Q584.7320844782397 260.78937541745523 584.2602541272954 265.05831668790324Q583.7884237763512 269.3272579583513 583.473870209055 272.94462398225727L583.473870209055 272.94462398225727Q583.1593166417588 277.0562884690572 583.1593166417588 280.853399388561L583.1593166417588 280.853399388561Q582.3729327235185 288.5824298992669 582.2830602757194 297.68201523890616Q582.2156559398703 306.75913246659564 582.3729327235185 316.0833989257322Q582.5302095071665 325.40766538486866 583.0020398581107 334.23763338111115Q583.473870209055 343.0900694893034 584.0355730077981 350.2798653132159Q584.5748076945915 357.4696611371284 585.1365104933348 362.45758198996765Q585.6757451801282 367.42303473085724 586.0127668593741 368.83852578369L586.0127668593741 368.83852578369Q586.6418739939664 371.220145650361 587.2709811285588 373.4220206214342L587.2709811285588 373.4220206214342Q587.9000882631511 375.33181013716097 588.6864721813915 377.46628077238495Q589.472856099632 379.5782832956593 590.5737935851686 380.8589656767937L590.5737935851686 380.8589656767937L575.2505412354551 380.8589656767937Q573.20594304803 380.8589656767937 571.318621644253 381.0162424604418L571.318621644253 381.0162424604418Q569.5661089121743 381.17351924408985 567.6787875083972 381.3307960277379Q565.7914661046202 381.488072811386 564.1962301561896 381.8026263786822ZM638.6106169336838 306.6018556829476L638.6106169336838 306.6018556829476Q642.7222814204838 306.6018556829476 647.1484994745799 308.1072191835793Q651.5522494167263 309.61258268421096 655.6639139035262 311.90433010308305Q659.7755783903262 314.17360941000544 663.1682632947349 316.8023785081234Q666.5609481991436 319.4086794942917 668.7852912821666 321.767831249013L668.7852912821666 321.767831249013Q672.7396789853184 326.036772519461 674.2225743740004 333.22656834337346Q675.7279378746321 340.41636416728596 674.7842771727435 347.9207135584946Q673.840616470855 355.4250629497033 670.3580591186474 362.0531559748726Q666.8979698783895 368.6812490000419 660.7192390922147 371.84925278495336L660.7192390922147 371.84925278495336Q656.2930210381186 374.0511277560266 652.0465478796203 375.33181013716097Q647.7776066091723 376.59002440634566 643.8232189060204 377.219131540938Q639.8688312028685 377.84823867553035 636.3862738506609 377.84823867553035Q632.926184610403 377.84823867553035 630.387287960084 377.69096189188224L630.387287960084 377.69096189188224Q625.6465163386916 377.37640832458607 620.5237868141539 374.3656813233227Q615.3785891776666 371.3774224340091 610.8849667877214 366.95120437991295Q606.391344397776 362.5249863258168 603.2233406128646 357.2449800176311Q600.0553368279532 351.94250559749565 599.4262296933608 347.20173397610336L599.4262296933608 347.20173397610336Q598.4825689914724 340.73091773458214 599.1116761260646 333.6085262465188Q599.740783260657 326.50860287040524 603.7850434116078 320.5096169798283Q607.8068354506088 314.5106310892513 616.0975687600578 310.5562433860994Q624.388302069507 306.6018556829476 638.6106169336838 306.6018556829476ZM633.3980149613473 367.89486508180147L633.3980149613473 367.89486508180147Q635.1280595814762 368.20941864909764 638.1387865827396 367.0186087157621Q641.1270454720532 365.8502668943764 644.0479000255177 363.1540934604092Q646.9912226909319 360.48038813839173 649.282970109804 356.2788512037929Q651.5522494167263 352.09978238114377 652.0465478796203 346.1007964905668L652.0465478796203 346.1007964905668Q652.5183782305646 340.2590873836379 652.1139522154695 335.3610389785975Q651.7319943123241 330.46299057355714 650.6085887148379 326.73328398990253Q649.5076512293012 323.02604551819763 648.0921601764685 320.66689376347637Q646.6766691236357 318.28527389680534 645.0814331752051 317.3416131949169L645.0814331752051 317.3416131949169Q642.4077278531877 315.92612214208407 638.6106169336838 315.0498657760448Q634.8135060141801 314.17360941000544 632.1398006921627 315.45429179113984L632.1398006921627 315.45429179113984Q630.8591183110282 316.0833989257322 628.9717969072512 318.1279971131573Q627.0844755034741 320.19506341253214 625.1746859877474 323.27319474964463Q623.2873645839704 326.3513260867572 621.7820010833386 330.305713789909Q620.276637582707 334.23763338111115 619.6475304481147 338.5065746515592L619.6475304481147 338.5065746515592Q619.0184233135224 342.77551592200723 619.4228493286174 347.67356432704764Q619.8048072317628 352.571612732088 621.4000431801933 356.9079583383852Q622.9728110166742 361.2667720566322 625.8936655701386 364.3449033937447Q628.8145201236031 367.42303473085724 633.3980149613473 367.89486508180147ZM756.9276944609436 310.39896660245137L756.9276944609436 310.39896660245137Q756.4558641099993 307.23096281753993 756.1413105427032 305.0964921823159Q755.826756975407 302.96202154709187 755.5122034081108 301.7038072779072L755.5122034081108 301.7038072779072Q755.1976498408147 300.13103944142637 755.0403730571666 299.3446555231859L755.0403730571666 299.3446555231859Q754.7258194898704 298.53580349299574 754.2539891389262 297.5921427911073L754.2539891389262 297.5921427911073Q753.93943557163 296.8057588728668 753.2204559892388 295.70482138733024Q752.5014764068475 294.6038839017936 751.557815704959 293.16592473701115L751.557815704959 293.16592473701115Q753.6248820043338 293.7950318716035 755.7593526395578 293.95230865525156Q757.8938232747819 294.1320535508494 759.7811446785589 294.2893303344975L759.7811446785589 294.2893303344975Q761.8257428659839 294.44660711814555 764.050085949007 294.2893303344975L764.050085949007 294.2893303344975Q766.2519609200801 294.2893303344975 769.1054111376953 294.1320535508494L769.1054111376953 294.1320535508494Q771.6218396760647 293.95230865525156 775.1718013641215 293.8849043194024Q778.7442311641281 293.7950318716035 783.3277260018723 293.48047830430727L783.3277260018723 293.48047830430727Q780.631552567905 294.1320535508494 778.8116354999772 295.6149489395313Q776.9917184320494 297.120312440163 775.7335041628647 298.8503570602919L775.7335041628647 298.8503570602919Q774.3180131100319 300.7601465760187 773.3743524081434 302.96202154709187L773.3743524081434 302.96202154709187Q772.5655003779533 305.0290878464667 772.4082235943052 310.7809245055967Q772.2509468106571 316.5552292766764 772.4082235943052 324.37413223518126Q772.5655003779533 332.19303519368606 772.8126496094002 341.20274808552637Q773.0597988408473 350.2124609773667 773.1272031766964 358.4133218390169Q773.2170756244954 366.6366508126168 773.0597988408473 373.354616285585Q772.8800539452494 380.0725817585532 772.2509468106571 383.21811743151494L772.2509468106571 383.21811743151494Q770.0490718395839 393.1714910252438 764.050085949007 399.41762614726775Q758.0511000584299 405.66376126929174 748.2550032483492 406.13559162023597L748.2550032483492 406.13559162023597Q736.3918401388936 406.60742197118026 729.5165978822773 403.91124853721305Q722.6638237376106 401.2375432151956 718.866712818107 397.35055984789295Q715.0696018986031 393.48604459253994 713.1822804948262 389.5316568893881Q711.2724909790994 385.59973729818597 709.2278927916742 383.5326709988111L709.2278927916742 383.5326709988111Q707.3405713878973 381.8026263786822 705.4307818721705 380.2298585422013L705.4307818721705 380.2298585422013Q703.7007372520416 378.94917616106693 701.8808201841136 377.69096189188224Q700.0609031161858 376.43274762269755 698.3308584960569 376.1181940554014L698.3308584960569 376.1181940554014Q702.914353333801 376.27547083904943 706.5317193577071 376.27547083904943Q710.1715534935628 376.27547083904943 712.7104501438819 376.27547083904943L712.7104501438819 376.27547083904943Q715.5414322495474 376.27547083904943 717.7657753325703 376.1181940554014L717.7657753325703 376.1181940554014L722.8211005212587 376.1181940554014L737.178224057134 376.1181940554014Q734.0326883841723 377.0618547572899 732.4374524357418 378.2526646906254Q730.8646845992608 379.42100651201116 730.2355774646685 380.70168889314556L730.2355774646685 380.70168889314556Q729.6064703300761 382.11717994597836 729.6064703300761 383.5326709988111L729.6064703300761 383.5326709988111Q730.2355774646685 387.3297819183149 733.7181348168762 389.0598265384438Q737.178224057134 390.8123392705225 743.1996780596606 391.1268928378187L743.1996780596606 391.1268928378187Q749.0413871665896 391.44144640511485 751.2432621376628 390.87974360637173Q753.4676052206858 390.3405089195782 754.7258194898704 388.90254975479576L754.7258194898704 388.90254975479576Q757.2422480282398 385.1279069472417 758.9947607603184 379.106452944715L758.9947607603184 379.106452944715Q760.2529750295031 374.0511277560266 760.8146778282463 365.91767123022555Q761.3539125150397 357.7842147044245 759.3093143276146 345.9435197069187L759.3093143276146 345.9435197069187Q754.2539891389262 352.8861662993842 747.6034280018072 356.3687236515918Q740.9753349766378 359.8512810037994 734.9763490860608 361.42404884028025L734.9763490860608 361.42404884028025Q727.8764257099473 363.1540934604092 720.5967574382358 363.1540934604092L720.5967574382358 363.1540934604092Q701.4763941690186 362.36770954216877 691.994850926234 354.301657352217Q682.5357757953992 346.25807327421484 683.3221597136396 332.66486554463035L683.3221597136396 332.66486554463035Q683.7939900645838 325.8794957358129 687.5012285362887 319.0716578150458Q691.2084670079936 312.2862880062284 697.2973253463695 306.91640925024376Q703.3861836847453 301.5465304942591 711.2724909790994 298.3785267093477Q719.1812663854031 295.23299103638595 727.7191489262992 295.70482138733024L727.7191489262992 295.70482138733024Q734.1899651678203 296.3339285219226 739.8743974911011 298.0639731420515L739.8743974911011 298.0639731420515Q744.7724458961416 299.6592090904821 749.580621853383 302.49019119614763Q754.4112659225742 305.3436414137629 756.9276944609436 310.39896660245137ZM706.6889961413551 326.1940493031091L706.6889961413551 326.1940493031091Q705.7453354394667 332.3503119773342 707.5652525073945 337.7201907333188Q709.3851695753224 343.0900694893034 712.7104501438819 346.95458474465636Q716.0132626004917 350.8415681119591 720.1249270872916 352.97603874718305Q724.2365915740916 355.1105093824071 727.8764257099473 354.95323259875903L727.8764257099473 354.95323259875903Q735.448179437005 354.7959558151109 740.9753349766378 348.0779903421427Q746.5024905162705 341.3600248691745 747.6034280018072 327.92409392323805L747.6034280018072 327.92409392323805Q748.0977264647012 321.2960008980687 745.9632558294771 316.46535682887753Q743.8287851942531 311.65718087163606 740.6607814093417 308.6464538703727Q737.4927776244302 305.65819498105907 734.0326883841723 304.3999807118744Q730.5501310319647 303.11929833074 728.5055328445395 303.2765751143881L728.5055328445395 303.2765751143881Q725.6520826269243 303.5911286816842 722.2593977225156 304.93921539866784Q718.866712818107 306.2873021156514 715.6987090331954 308.8936031018197Q712.5531733602338 311.49990408798794 710.1041491577136 315.768845358436Q707.6551249551934 320.037786628884 706.6889961413551 326.1940493031091ZM827.0731399679897 306.6018556829476L827.0731399679897 306.6018556829476Q831.1848044547897 306.6018556829476 835.6110225088859 308.1072191835793Q840.037240562982 309.61258268421096 844.1489050497819 311.90433010308305Q848.2381014246322 314.17360941000544 851.6532544409905 316.8023785081234Q855.0459393453992 319.4086794942917 857.2478143164725 321.767831249013L857.2478143164725 321.767831249013Q861.2022020196243 326.036772519461 862.707565520256 333.22656834337346Q864.2129290208876 340.41636416728596 863.2468002070494 347.9207135584946Q862.3031395051609 355.4250629497033 858.8205821529533 362.0531559748726Q855.3604929126953 368.6812490000419 849.2042302384704 371.84925278495336L849.2042302384704 371.84925278495336Q844.7780121843742 374.0511277560266 840.5090709139262 375.33181013716097Q836.2401296434781 376.59002440634566 832.2857419403263 377.219131540938Q828.3313542371744 377.84823867553035 824.8712649969165 377.84823867553035Q821.3887076447089 377.84823867553035 818.8722791063395 377.69096189188224L818.8722791063395 377.69096189188224Q814.1315074849473 377.37640832458607 808.9863098484599 374.3656813233227Q803.8635803239223 371.3774224340091 799.3474898220272 366.95120437991295Q794.853867432082 362.5249863258168 791.6858636471705 357.2449800176311Q788.5403279742088 351.94250559749565 787.8887527276668 347.20173397610336L787.8887527276668 347.20173397610336Q786.9450920257782 340.73091773458214 787.5741991603705 333.6085262465188Q788.2257744069126 326.50860287040524 792.2475664459137 320.5096169798283Q796.2693584849147 314.5106310892513 804.5600917943638 310.5562433860994Q812.8508251038129 306.6018556829476 827.0731399679897 306.6018556829476ZM821.8605379956532 367.89486508180147L821.8605379956532 367.89486508180147Q823.6130507277318 368.20941864909764 826.6013096170456 367.0186087157621Q829.6120366183088 365.8502668943764 832.5328911717733 363.1540934604092Q835.4537457252378 360.48038813839173 837.7454931441099 356.2788512037929Q840.037240562982 352.09978238114377 840.5090709139262 346.1007964905668L840.5090709139262 346.1007964905668Q840.9809012648705 340.2590873836379 840.5764752497754 335.3610389785975Q840.19451734663 330.46299057355714 839.0935798610934 326.73328398990253Q837.9701742636071 323.02604551819763 836.5546832107743 320.66689376347637Q835.1391921579416 318.28527389680534 833.5439562095111 317.3416131949169L833.5439562095111 317.3416131949169Q830.8702508874936 315.92612214208407 827.0731399679897 315.0498657760448Q823.2760290484861 314.17360941000544 820.6023237264685 315.45429179113984L820.6023237264685 315.45429179113984Q819.3441094572838 316.0833989257322 817.4343199415571 318.1279971131573Q815.54699853778 320.19506341253214 813.659677134003 323.27319474964463Q811.7498876182763 326.3513260867572 810.2445241176446 330.305713789909Q808.7616287289626 334.23763338111115 808.1100534824205 338.5065746515592L808.1100534824205 338.5065746515592Q807.4809463478283 342.77551592200723 807.8853723629232 347.67356432704764Q808.2673302660687 352.571612732088 809.8625662144992 356.9079583383852Q811.4353340509801 361.2667720566322 814.3561886044446 364.3449033937447Q817.2770431579089 367.42303473085724 821.8605379956532 367.89486508180147ZM955.5233359845762 262.51942003758415L955.5233359845762 262.51942003758415Q958.5115948738897 262.20486647028804 962.7131318084886 263.6203575231208Q966.8922006311378 265.05831668790324 971.3858230210831 267.73202200992074Q975.9019135229781 270.42819544388794 980.2382591292754 274.1354339155928Q984.5746047355725 277.8426723872977 988.0571620877802 282.1116136577457Q991.5397194399878 286.38055492819376 993.7415944110609 291.0314541017871Q995.965937494084 295.70482138733024 996.123214277732 300.13103944142637L996.123214277732 300.13103944142637Q996.4377678450281 309.9271362515071 995.7187882626368 316.71250606032453Q994.9998086802456 323.4978758691419 993.2023597242676 328.48579672198116Q991.3824426563397 333.45124946287075 988.4615881028752 337.09108359872647Q985.5407335494107 340.73091773458214 981.2717922789628 344.19100697484004L981.2717922789628 344.19100697484004Q972.7339097380667 350.99884489560714 961.4324494273543 353.2905923144793Q950.1534572285915 355.5823397333514 937.9757405518397 352.41433594843994L937.9757405518397 352.41433594843994Q931.8194778776148 350.8415681119591 926.6742802411273 346.4827543937121Q921.5515507165898 342.14640878741494 917.8443122448848 336.3721040163352Q914.1146056612303 330.6202673572052 912.070007473805 323.96970622008615Q910.0254092863801 317.3416131949169 910.0254092863801 311.3426273043399L910.0254092863801 311.3426273043399Q910.1826860700281 302.96202154709187 912.3845610411012 294.6712882376428Q914.6089041241243 286.38055492819376 919.8215060964607 279.5951851193763Q925.0341080687973 272.7873471986092 933.7067992813917 268.1364480250158Q942.4019586059359 263.4630807394727 955.5233359845762 262.51942003758415ZM925.8204919870378 286.852385279138L925.8204919870378 286.852385279138Q923.9107024713111 289.234005145809 922.4278070826291 292.6266900502177Q920.9224435819973 296.0193749546264 920.0461872159581 300.0411669936274Q919.1699308499186 304.0629590326285 919.1025265140695 308.3319003030765Q919.0126540662706 312.6008415735246 919.8215060964607 316.71250606032453L919.8215060964607 316.71250606032453Q921.3942739329416 324.6212814666282 925.1913848524454 329.4294574238697Q928.9660276599994 334.23763338111115 935.9311423644147 339.13568178615157L935.9311423644147 339.13568178615157Q939.2339548210244 341.67457843647065 943.4354917556233 342.77551592200723Q947.6145605782724 343.87645340754386 951.8835018487205 343.96632585534275Q956.1524431191685 344.0337301911919 960.0169583745216 343.4046230565996Q963.8814736298744 342.77551592200723 966.7349238474898 341.67457843647065L966.7349238474898 341.67457843647065Q972.2620793871224 339.45023535344774 977.5420856953081 333.29397267922263Q982.8445601154436 327.1377100049976 985.8552871167069 315.45429179113984L985.8552871167069 315.45429179113984Q987.2707781695398 309.61258268421096 986.2372450198523 304.2427039282263Q985.203711870165 298.8503570602919 982.7546876676447 294.2893303344975Q980.3281315770743 289.70583549675325 976.7557017770677 285.81885212945053Q973.205740089011 281.95433687409763 969.5659059531553 278.96607798478396L969.5659059531553 278.96607798478396Q965.9485399292493 275.95535098352065 961.8368754424492 274.76454105018513Q957.7252109556493 273.5737311168496 953.8606957002963 273.50632678100044Q949.9961804449434 273.4164543332015 946.581027428585 274.1354339155928Q943.1883425241764 274.854413497984 940.8291907694551 275.6407974162245L940.8291907694551 275.6407974162245Q936.560249499007 277.21356525270534 933.1675645945983 279.75246190302437Q929.7748796901896 282.26889044139375 925.8204919870378 286.852385279138ZM949.8164355493457 283.3698279269304L949.8164355493457 283.3698279269304Q952.5126089833128 283.3698279269304 954.6470796185368 284.0888075093216Q956.7815502537609 284.80778709171284 958.6014673216888 285.7514477936014Q960.4213843896166 286.6951084954899 962.0615565619465 287.5713648615292Q963.7241968462264 288.42515311561885 965.4767095783051 288.42515311561885L965.4767095783051 288.42515311561885L967.9931381166743 288.42515311561885Q969.094075602211 288.42515311561885 970.2174811996973 288.51502556341774Q971.318418685234 288.5824298992669 972.1048026034744 288.739706682915L972.1048026034744 288.739706682915Q971.318418685234 290.1776658476975 970.5994391028427 291.1887308854352Q969.8804595204514 292.22226403512263 969.4086291695072 293.00864795336304L969.4086291695072 293.00864795336304Q968.7795220349149 293.7950318716035 968.4649684676186 294.6038839017936L968.4649684676186 294.6038839017936Q967.8358613330263 295.39026782003407 967.0494774147859 296.8057588728668L967.0494774147859 296.8057588728668Q966.2630934965454 298.0639731420515 964.9824111154111 300.13103944142637Q963.7241968462264 302.17563762885146 961.5223218751531 305.500918197411L961.5223218751531 305.500918197411Q961.5223218751531 300.7601465760187 960.4887887254657 298.0639731420515Q959.4552555757783 295.39026782003407 958.1970413065936 293.95230865525156L958.1970413065936 293.95230865525156Q956.7815502537609 292.3795408187707 955.0515056336319 291.90771046782646L955.0515056336319 291.90771046782646Q952.6698857669609 291.5931569005303 950.0635847807927 293.3232015206592Q947.4572837946245 295.0757142527379 945.3228131594004 297.90669635840345Q943.1883425241764 300.7601465760187 941.6829790235446 303.9955546967793Q940.2000836348627 307.23096281753993 939.8855300675665 310.0844130351552L939.8855300675665 310.0844130351552Q939.5485083883206 312.44356478987646 940.5146372021588 315.521696126989Q941.4582979040474 318.5998274641015 943.3456193078244 321.2960008980687Q945.2554088235512 323.96970622008615 947.7718373619205 325.72221895216484Q950.3107340122395 327.45226357229376 953.2989929015532 327.45226357229376L953.2989929015532 327.45226357229376Q955.5233359845762 327.2949867886457 957.5679341720013 326.3513260867572L957.5679341720013 326.3513260867572Q959.2979787921303 325.5649421685168 961.050491524209 323.96970622008615Q962.7805361443378 322.39693838360535 963.7241968462264 319.22893459869385L963.7241968462264 319.22893459869385L973.205740089011 322.0823848163091Q968.3076916839706 327.6095403559419 963.7241968462264 330.305713789909Q959.1407020084822 332.97941911192646 955.5233359845762 334.0803565974631L955.5233359845762 334.0803565974631Q951.4116714977762 335.3610389785975 947.6145605782724 335.20376219494943L947.6145605782724 335.20376219494943Q942.87378895688 334.73193184400515 938.9194012537283 332.44018442513305Q934.9874816625262 330.14843700626096 932.2913082285589 326.8231564377014Q929.5951347945918 323.4978758691419 928.1796437417589 319.63336061378897Q926.7641526889263 315.768845358436 926.9214294725745 312.1290112225803L926.9214294725745 312.1290112225803Q927.0787062562225 308.4891770867246 928.7413465405021 303.5911286816842Q930.403986824782 298.69308027664385 933.3922457140956 294.19945788669855Q936.4029727153589 289.70583549675325 940.5146372021588 286.5378317118418Q944.603833577009 283.3698279269304 949.8164355493457 283.3698279269304Z " fill="white" transform="matrix(0.8783209545450321,0,0,0.8783209545450321,0,9.094925804116116)"/></g></svg>